{
	"patcher" : 	{
		"fileversion" : 1,
		"appversion" : 		{
			"major" : 8,
			"minor" : 3,
			"revision" : 1,
			"architecture" : "x64",
			"modernui" : 1
		}
,
		"classnamespace" : "box",
		"rect" : [ 59.0, 106.0, 957.0, 627.0 ],
		"bglocked" : 0,
		"openinpresentation" : 0,
		"default_fontsize" : 12.0,
		"default_fontface" : 0,
		"default_fontname" : "Arial",
		"gridonopen" : 1,
		"gridsize" : [ 15.0, 15.0 ],
		"gridsnaponopen" : 1,
		"objectsnaponopen" : 1,
		"statusbarvisible" : 2,
		"toolbarvisible" : 1,
		"lefttoolbarpinned" : 0,
		"toptoolbarpinned" : 0,
		"righttoolbarpinned" : 0,
		"bottomtoolbarpinned" : 0,
		"toolbars_unpinned_last_save" : 0,
		"tallnewobj" : 0,
		"boxanimatetime" : 200,
		"enablehscroll" : 1,
		"enablevscroll" : 1,
		"devicewidth" : 0.0,
		"description" : "",
		"digest" : "",
		"tags" : "",
		"style" : "",
		"subpatcher_template" : "",
		"assistshowspatchername" : 0,
		"boxes" : [ 			{
				"box" : 				{
					"fontface" : 2,
					"id" : "obj-69",
					"maxclass" : "comment",
					"numinlets" : 1,
					"numoutlets" : 0,
					"patching_rect" : [ 466.0, 84.0, 274.0, 20.0 ],
					"text" : "[pitch-in-midicents duration velocity note-flag]",
					"textcolor" : [ 0.500000059604645, 0.0, 0.5, 1.0 ]
				}

			}
, 			{
				"box" : 				{
					"id" : "obj-67",
					"maxclass" : "comment",
					"numinlets" : 1,
					"numoutlets" : 0,
					"patching_rect" : [ 445.0, 59.0, 311.0, 20.0 ],
					"text" : "We're interested in the note LLLL, always in this form:"
				}

			}
, 			{
				"box" : 				{
					"fontface" : 2,
					"id" : "obj-65",
					"maxclass" : "comment",
					"numinlets" : 1,
					"numoutlets" : 0,
					"patching_rect" : [ 466.0, 35.0, 485.0, 20.0 ],
					"text" : "note <voice_number> <MIDI_channel> [<chord.onset> [<NOTE_LLLL>] <chord_flag>]",
					"textcolor" : [ 0.500000059604645, 0.0, 0.5, 1.0 ]
				}

			}
, 			{
				"box" : 				{
					"id" : "obj-63",
					"maxclass" : "comment",
					"numinlets" : 1,
					"numoutlets" : 0,
					"patching_rect" : [ 445.0, 10.0, 325.0, 20.0 ],
					"text" : "Playback syntax from bach.roll is always a list in this form:"
				}

			}
, 			{
				"box" : 				{
					"id" : "obj-61",
					"linecount" : 3,
					"maxclass" : "comment",
					"numinlets" : 1,
					"numoutlets" : 0,
					"patching_rect" : [ 445.0, 124.0, 432.0, 47.0 ],
					"text" : "<= <bach.playkeys> is a simple way to get the info we need to make our own synthesizers. @ out t means it will return \"text output\" that we can use in our regular Max objects. Without @out t, we would get an encoded bach list (llll)"
				}

			}
, 			{
				"box" : 				{
					"id" : "obj-59",
					"linecount" : 2,
					"maxclass" : "comment",
					"numinlets" : 1,
					"numoutlets" : 0,
					"patching_rect" : [ 472.0, 186.5, 69.0, 33.0 ],
					"text" : "<velocity>\nvolume"
				}

			}
, 			{
				"box" : 				{
					"id" : "obj-57",
					"linecount" : 2,
					"maxclass" : "comment",
					"numinlets" : 1,
					"numoutlets" : 0,
					"patching_rect" : [ 322.333333333333371, 186.5, 74.0, 33.0 ],
					"text" : "<duration>\nms"
				}

			}
, 			{
				"box" : 				{
					"id" : "obj-55",
					"linecount" : 2,
					"maxclass" : "comment",
					"numinlets" : 1,
					"numoutlets" : 0,
					"patching_rect" : [ 173.0, 186.5, 76.0, 33.0 ],
					"text" : "<midicents> \npitch"
				}

			}
, 			{
				"box" : 				{
					"id" : "obj-53",
					"linecount" : 6,
					"maxclass" : "comment",
					"numinlets" : 1,
					"numoutlets" : 0,
					"patching_rect" : [ 472.0, 390.0, 150.0, 87.0 ],
					"text" : "Our familiar ADSR\n(attack sustain decay\nrelease) curve.\n\nNotice that there is NO\nSUSTAIN turned on"
				}

			}
, 			{
				"box" : 				{
					"fontface" : 1,
					"id" : "obj-51",
					"maxclass" : "comment",
					"numinlets" : 1,
					"numoutlets" : 0,
					"patching_rect" : [ 472.0, 360.0, 75.0, 20.0 ],
					"text" : "<function>",
					"textcolor" : [ 0.990415692329407, 0.500269114971161, 0.032865822315216, 1.0 ]
				}

			}
, 			{
				"box" : 				{
					"id" : "obj-49",
					"maxclass" : "comment",
					"numinlets" : 1,
					"numoutlets" : 0,
					"patching_rect" : [ 152.166666666666686, 584.0, 294.0, 20.0 ],
					"text" : "<= to volume controls and dac~ outputs from Max"
				}

			}
, 			{
				"box" : 				{
					"fontface" : 1,
					"id" : "obj-47",
					"maxclass" : "comment",
					"numinlets" : 1,
					"numoutlets" : 0,
					"patching_rect" : [ 152.166666666666686, 562.0, 159.0, 20.0 ],
					"text" : "<outlet>",
					"textcolor" : [ 0.990415692329407, 0.500269114971161, 0.032865822315216, 1.0 ]
				}

			}
, 			{
				"box" : 				{
					"comment" : "",
					"id" : "obj-45",
					"index" : 0,
					"maxclass" : "outlet",
					"numinlets" : 1,
					"numoutlets" : 0,
					"patching_rect" : [ 113.0, 567.0, 30.0, 30.0 ]
				}

			}
, 			{
				"box" : 				{
					"id" : "obj-44",
					"linecount" : 7,
					"maxclass" : "comment",
					"numinlets" : 1,
					"numoutlets" : 0,
					"patching_rect" : [ 6.0, 390.0, 119.0, 100.0 ],
					"text" : "Simple cosine wave synth engine. Try replacing this with other waveforms you already know: saw~, tri~, rect~, etc."
				}

			}
, 			{
				"box" : 				{
					"fontface" : 1,
					"id" : "obj-42",
					"maxclass" : "comment",
					"numinlets" : 1,
					"numoutlets" : 0,
					"patching_rect" : [ 44.0, 360.0, 63.0, 20.0 ],
					"text" : "<cycle~>",
					"textcolor" : [ 0.990415692329407, 0.500269114971161, 0.032865822315216, 1.0 ]
				}

			}
, 			{
				"box" : 				{
					"fontface" : 1,
					"id" : "obj-40",
					"maxclass" : "comment",
					"numinlets" : 1,
					"numoutlets" : 0,
					"patching_rect" : [ 44.0, 322.0, 64.0, 20.0 ],
					"text" : "<trigger>",
					"textcolor" : [ 0.990415692329407, 0.500269114971161, 0.032865822315216, 1.0 ]
				}

			}
, 			{
				"box" : 				{
					"id" : "obj-38",
					"linecount" : 2,
					"maxclass" : "comment",
					"numinlets" : 1,
					"numoutlets" : 0,
					"patching_rect" : [ 6.0, 235.5, 97.0, 33.0 ],
					"text" : "convert from midicents to Hz"
				}

			}
, 			{
				"box" : 				{
					"fontface" : 1,
					"id" : "obj-36",
					"maxclass" : "comment",
					"numinlets" : 1,
					"numoutlets" : 0,
					"patching_rect" : [ 66.0, 193.0, 30.0, 20.0 ],
					"text" : "<f>",
					"textcolor" : [ 0.990415692329407, 0.500269114971161, 0.032865822315216, 1.0 ]
				}

			}
, 			{
				"box" : 				{
					"fontface" : 1,
					"id" : "obj-33",
					"maxclass" : "comment",
					"numinlets" : 1,
					"numoutlets" : 0,
					"patching_rect" : [ 6.0, 124.0, 112.0, 20.0 ],
					"text" : "<bach.playkeys>",
					"textcolor" : [ 0.990415692329407, 0.500269114971161, 0.032865822315216, 1.0 ]
				}

			}
, 			{
				"box" : 				{
					"id" : "obj-31",
					"maxclass" : "comment",
					"numinlets" : 1,
					"numoutlets" : 0,
					"patching_rect" : [ 154.5, 35.0, 223.0, 20.0 ],
					"text" : "<= Playout (7th outlet) from <bach.roll>"
				}

			}
, 			{
				"box" : 				{
					"fontface" : 1,
					"id" : "obj-29",
					"maxclass" : "comment",
					"numinlets" : 1,
					"numoutlets" : 0,
					"patching_rect" : [ 154.5, 14.5, 245.0, 20.0 ],
					"text" : "<inlet>",
					"textcolor" : [ 0.990415692329407, 0.500269114971161, 0.032865822315216, 1.0 ]
				}

			}
, 			{
				"box" : 				{
					"color" : [ 0.986246049404144, 0.007120788097382, 0.027434188872576, 1.0 ],
					"id" : "obj-27",
					"maxclass" : "newobj",
					"numinlets" : 2,
					"numoutlets" : 2,
					"outlettype" : [ "signal", "bang" ],
					"patching_rect" : [ 322.333333333333371, 473.0, 34.0, 22.0 ],
					"text" : "line~"
				}

			}
, 			{
				"box" : 				{
					"color" : [ 0.986246049404144, 0.007120788097382, 0.027434188872576, 1.0 ],
					"id" : "obj-26",
					"maxclass" : "newobj",
					"numinlets" : 2,
					"numoutlets" : 1,
					"outlettype" : [ "signal" ],
					"patching_rect" : [ 113.0, 512.0, 228.333333333333371, 22.0 ],
					"text" : "*~"
				}

			}
, 			{
				"box" : 				{
					"addpoints" : [ 430.851063829787222, 0.44, 0, 500.0, 0.52, 0, 638.297872340425556, 0.466666666666667, 0, 718.085106382978779, 0.266666666666667, 0, 787.234042553191443, 0.146666666666667, 0 ],
					"id" : "obj-25",
					"maxclass" : "function",
					"numinlets" : 1,
					"numoutlets" : 4,
					"outlettype" : [ "float", "", "", "bang" ],
					"parameter_enable" : 0,
					"patching_rect" : [ 262.0, 360.0, 200.0, 100.0 ]
				}

			}
, 			{
				"box" : 				{
					"id" : "obj-24",
					"maxclass" : "newobj",
					"numinlets" : 2,
					"numoutlets" : 1,
					"outlettype" : [ "float" ],
					"patching_rect" : [ 411.0, 241.0, 39.0, 22.0 ],
					"text" : "/ 127."
				}

			}
, 			{
				"box" : 				{
					"id" : "obj-23",
					"maxclass" : "message",
					"numinlets" : 2,
					"numoutlets" : 1,
					"outlettype" : [ "" ],
					"patching_rect" : [ 411.0, 278.0, 82.0, 22.0 ],
					"text" : "setrange 0 $1"
				}

			}
, 			{
				"box" : 				{
					"id" : "obj-21",
					"maxclass" : "message",
					"numinlets" : 2,
					"numoutlets" : 1,
					"outlettype" : [ "" ],
					"patching_rect" : [ 262.0, 278.0, 81.0, 22.0 ],
					"text" : "setdomain $1"
				}

			}
, 			{
				"box" : 				{
					"color" : [ 0.986246049404144, 0.007120788097382, 0.027434188872576, 1.0 ],
					"id" : "obj-18",
					"maxclass" : "newobj",
					"numinlets" : 2,
					"numoutlets" : 1,
					"outlettype" : [ "signal" ],
					"patching_rect" : [ 113.0, 360.0, 43.0, 22.0 ],
					"text" : "cycle~"
				}

			}
, 			{
				"box" : 				{
					"id" : "obj-17",
					"maxclass" : "newobj",
					"numinlets" : 1,
					"numoutlets" : 2,
					"outlettype" : [ "float", "bang" ],
					"patching_rect" : [ 113.0, 321.0, 29.5, 22.0 ],
					"text" : "t f b"
				}

			}
, 			{
				"box" : 				{
					"format" : 6,
					"id" : "obj-16",
					"maxclass" : "flonum",
					"numinlets" : 1,
					"numoutlets" : 2,
					"outlettype" : [ "", "bang" ],
					"parameter_enable" : 0,
					"patching_rect" : [ 113.0, 278.0, 50.0, 22.0 ]
				}

			}
, 			{
				"box" : 				{
					"id" : "obj-11",
					"maxclass" : "newobj",
					"numinlets" : 2,
					"numoutlets" : 1,
					"outlettype" : [ "" ],
					"patching_rect" : [ 113.0, 241.0, 103.0, 22.0 ],
					"text" : "bach.mc2f @out t"
				}

			}
, 			{
				"box" : 				{
					"format" : 6,
					"id" : "obj-10",
					"maxclass" : "flonum",
					"numinlets" : 1,
					"numoutlets" : 2,
					"outlettype" : [ "", "bang" ],
					"parameter_enable" : 0,
					"patching_rect" : [ 411.0, 192.0, 50.0, 22.0 ]
				}

			}
, 			{
				"box" : 				{
					"format" : 6,
					"id" : "obj-8",
					"maxclass" : "flonum",
					"numinlets" : 1,
					"numoutlets" : 2,
					"outlettype" : [ "", "bang" ],
					"parameter_enable" : 0,
					"patching_rect" : [ 262.0, 192.0, 50.0, 22.0 ]
				}

			}
, 			{
				"box" : 				{
					"format" : 6,
					"id" : "obj-6",
					"maxclass" : "flonum",
					"numinlets" : 1,
					"numoutlets" : 2,
					"outlettype" : [ "", "bang" ],
					"parameter_enable" : 0,
					"patching_rect" : [ 113.0, 192.0, 50.0, 22.0 ]
				}

			}
, 			{
				"box" : 				{
					"id" : "obj-4",
					"maxclass" : "newobj",
					"numinlets" : 1,
					"numoutlets" : 3,
					"outlettype" : [ "", "", "" ],
					"patching_rect" : [ 113.0, 124.0, 317.0, 22.0 ],
					"saved_object_attributes" : 					{
						"versionnumber" : 80105
					}
,
					"text" : "bach.playkeys cents duration velocity @out t"
				}

			}
, 			{
				"box" : 				{
					"fontname" : "Arial Bold Italic",
					"fontsize" : 16.0,
					"id" : "obj-3",
					"linecount" : 3,
					"maxclass" : "comment",
					"numinlets" : 1,
					"numoutlets" : 0,
					"patching_rect" : [ 3.0, 10.0, 108.0, 60.0 ],
					"text" : "Monophonic Synth Engine"
				}

			}
, 			{
				"box" : 				{
					"comment" : "",
					"id" : "obj-1",
					"index" : 0,
					"maxclass" : "inlet",
					"numinlets" : 0,
					"numoutlets" : 1,
					"outlettype" : [ "" ],
					"patching_rect" : [ 113.0, 25.0, 30.0, 30.0 ]
				}

			}
 ],
		"lines" : [ 			{
				"patchline" : 				{
					"destination" : [ "obj-4", 0 ],
					"source" : [ "obj-1", 0 ]
				}

			}
, 			{
				"patchline" : 				{
					"destination" : [ "obj-24", 0 ],
					"source" : [ "obj-10", 0 ]
				}

			}
, 			{
				"patchline" : 				{
					"destination" : [ "obj-16", 0 ],
					"source" : [ "obj-11", 0 ]
				}

			}
, 			{
				"patchline" : 				{
					"destination" : [ "obj-17", 0 ],
					"source" : [ "obj-16", 0 ]
				}

			}
, 			{
				"patchline" : 				{
					"destination" : [ "obj-18", 0 ],
					"source" : [ "obj-17", 0 ]
				}

			}
, 			{
				"patchline" : 				{
					"destination" : [ "obj-25", 0 ],
					"source" : [ "obj-17", 1 ]
				}

			}
, 			{
				"patchline" : 				{
					"destination" : [ "obj-26", 0 ],
					"source" : [ "obj-18", 0 ]
				}

			}
, 			{
				"patchline" : 				{
					"destination" : [ "obj-25", 0 ],
					"source" : [ "obj-21", 0 ]
				}

			}
, 			{
				"patchline" : 				{
					"destination" : [ "obj-25", 0 ],
					"source" : [ "obj-23", 0 ]
				}

			}
, 			{
				"patchline" : 				{
					"destination" : [ "obj-23", 0 ],
					"source" : [ "obj-24", 0 ]
				}

			}
, 			{
				"patchline" : 				{
					"destination" : [ "obj-27", 0 ],
					"source" : [ "obj-25", 1 ]
				}

			}
, 			{
				"patchline" : 				{
					"destination" : [ "obj-45", 0 ],
					"source" : [ "obj-26", 0 ]
				}

			}
, 			{
				"patchline" : 				{
					"destination" : [ "obj-26", 1 ],
					"source" : [ "obj-27", 0 ]
				}

			}
, 			{
				"patchline" : 				{
					"destination" : [ "obj-10", 0 ],
					"source" : [ "obj-4", 2 ]
				}

			}
, 			{
				"patchline" : 				{
					"destination" : [ "obj-6", 0 ],
					"source" : [ "obj-4", 0 ]
				}

			}
, 			{
				"patchline" : 				{
					"destination" : [ "obj-8", 0 ],
					"source" : [ "obj-4", 1 ]
				}

			}
, 			{
				"patchline" : 				{
					"destination" : [ "obj-11", 0 ],
					"source" : [ "obj-6", 0 ]
				}

			}
, 			{
				"patchline" : 				{
					"destination" : [ "obj-21", 0 ],
					"source" : [ "obj-8", 0 ]
				}

			}
 ],
		"dependency_cache" : [ 			{
				"name" : "bach.args.mxo",
				"type" : "iLaX"
			}
, 			{
				"name" : "bach.expr.mxo",
				"type" : "iLaX"
			}
, 			{
				"name" : "bach.mc2f.maxpat",
				"bootpath" : "~/Documents/Max 8/Packages/bach/patchers",
				"patcherrelativepath" : "../../../../Documents/Max 8/Packages/bach/patchers",
				"type" : "JSON",
				"implicit" : 1
			}
, 			{
				"name" : "bach.playkeys.mxo",
				"type" : "iLaX"
			}
, 			{
				"name" : "bach.portal.mxo",
				"type" : "iLaX"
			}
 ],
		"autosave" : 0
	}

}
